<mxfile host="app.diagrams.net" modified="2021-03-03T07:10:35.559Z" agent="5.0 (Macintosh; Intel Mac OS X 10_15_6) AppleWebKit/537.36 (KHTML, like Gecko) Chrome/88.0.4324.192 Safari/537.36" etag="AJQaa6fukDy_3y8NObCw" version="14.2.9" type="github">
  <diagram id="OFh5jDZAujv4qqEXNCZY" name="Page-1">
    <mxGraphModel dx="2858" dy="1131" grid="1" gridSize="10" guides="1" tooltips="1" connect="1" arrows="1" fold="1" page="1" pageScale="1" pageWidth="827" pageHeight="1169" math="0" shadow="0">
      <root>
        <mxCell id="0" />
        <mxCell id="1" parent="0" />
        <mxCell id="DnD35GqqPeqiVCsaAdNy-98" value="" style="whiteSpace=wrap;html=1;fontColor=#330000;strokeColor=#666666;fillColor=none;dashed=1;" vertex="1" parent="1">
          <mxGeometry x="-30" y="20" width="840" height="900" as="geometry" />
        </mxCell>
        <mxCell id="DnD35GqqPeqiVCsaAdNy-99" value="&lt;b&gt;Original&lt;/b&gt; Delegate" style="shape=display;whiteSpace=wrap;html=1;size=0.11764705882352941;" vertex="1" parent="1">
          <mxGeometry x="70" y="93.45999999999998" width="170" height="40" as="geometry" />
        </mxCell>
        <mxCell id="DnD35GqqPeqiVCsaAdNy-100" value="" style="shape=ext;double=1;rounded=1;whiteSpace=wrap;html=1;" vertex="1" parent="1">
          <mxGeometry x="200" y="235" width="480" height="80" as="geometry" />
        </mxCell>
        <mxCell id="DnD35GqqPeqiVCsaAdNy-101" value="&lt;span style=&quot;color: rgb(0 , 0 , 0) ; font-family: &amp;#34;helvetica&amp;#34; ; font-size: 12px ; font-style: normal ; font-weight: 400 ; letter-spacing: normal ; text-indent: 0px ; text-transform: none ; word-spacing: 0px ; background-color: rgb(248 , 249 , 250) ; display: inline ; float: none&quot;&gt;DelegateProxyChain&lt;/span&gt;" style="text;html=1;strokeColor=none;fillColor=none;align=left;verticalAlign=middle;whiteSpace=wrap;rounded=0;" vertex="1" parent="1">
          <mxGeometry x="210" y="245" width="140" height="20" as="geometry" />
        </mxCell>
        <mxCell id="DnD35GqqPeqiVCsaAdNy-102" value="" style="endArrow=classic;html=1;" edge="1" parent="1" source="DnD35GqqPeqiVCsaAdNy-99" target="DnD35GqqPeqiVCsaAdNy-100">
          <mxGeometry width="50" height="50" relative="1" as="geometry">
            <mxPoint x="-50" y="93.45999999999998" as="sourcePoint" />
            <mxPoint y="43.45999999999998" as="targetPoint" />
          </mxGeometry>
        </mxCell>
        <mxCell id="DnD35GqqPeqiVCsaAdNy-103" value="包装" style="edgeLabel;html=1;align=center;verticalAlign=middle;resizable=0;points=[];" vertex="1" connectable="0" parent="DnD35GqqPeqiVCsaAdNy-102">
          <mxGeometry x="-0.06" y="2" relative="1" as="geometry">
            <mxPoint as="offset" />
          </mxGeometry>
        </mxCell>
        <mxCell id="DnD35GqqPeqiVCsaAdNy-104" value="&lt;font color=&quot;#666666&quot;&gt;&lt;b&gt;Original&lt;/b&gt; Delegate&lt;/font&gt;" style="shape=display;whiteSpace=wrap;html=1;size=0.11764705882352941;strokeColor=#666666;" vertex="1" parent="1">
          <mxGeometry x="510" y="273" width="170" height="40" as="geometry" />
        </mxCell>
        <mxCell id="DnD35GqqPeqiVCsaAdNy-105" value="Object" style="ellipse;whiteSpace=wrap;html=1;aspect=fixed;strokeColor=#666666;" vertex="1" parent="1">
          <mxGeometry x="400" y="70" width="80" height="80" as="geometry" />
        </mxCell>
        <mxCell id="DnD35GqqPeqiVCsaAdNy-106" value="" style="endArrow=classic;html=1;dashed=1;dashPattern=1 4;strokeColor=#666666;" edge="1" parent="1" source="DnD35GqqPeqiVCsaAdNy-105" target="DnD35GqqPeqiVCsaAdNy-99">
          <mxGeometry width="50" height="50" relative="1" as="geometry">
            <mxPoint x="250" y="80" as="sourcePoint" />
            <mxPoint x="250" y="90" as="targetPoint" />
          </mxGeometry>
        </mxCell>
        <mxCell id="DnD35GqqPeqiVCsaAdNy-107" value="&lt;font color=&quot;#666666&quot;&gt;delegate&lt;/font&gt;" style="edgeLabel;html=1;align=center;verticalAlign=middle;resizable=0;points=[];" vertex="1" connectable="0" parent="DnD35GqqPeqiVCsaAdNy-106">
          <mxGeometry x="-0.0464" relative="1" as="geometry">
            <mxPoint x="-1" as="offset" />
          </mxGeometry>
        </mxCell>
        <mxCell id="DnD35GqqPeqiVCsaAdNy-108" value="" style="endArrow=classic;html=1;strokeColor=#EA6B66;" edge="1" parent="1" source="DnD35GqqPeqiVCsaAdNy-105" target="DnD35GqqPeqiVCsaAdNy-100">
          <mxGeometry width="50" height="50" relative="1" as="geometry">
            <mxPoint x="490" y="320" as="sourcePoint" />
            <mxPoint x="540" y="270" as="targetPoint" />
          </mxGeometry>
        </mxCell>
        <mxCell id="DnD35GqqPeqiVCsaAdNy-109" value="实际delegate的值" style="edgeLabel;html=1;align=center;verticalAlign=middle;resizable=0;points=[];fontColor=#EA6B66;" vertex="1" connectable="0" parent="DnD35GqqPeqiVCsaAdNy-108">
          <mxGeometry x="-0.1059" y="2" relative="1" as="geometry">
            <mxPoint as="offset" />
          </mxGeometry>
        </mxCell>
        <mxCell id="DnD35GqqPeqiVCsaAdNy-110" value="&lt;b&gt;&lt;font color=&quot;#ea6b66&quot;&gt;Inteceptor&lt;/font&gt;&lt;/b&gt;" style="shape=display;whiteSpace=wrap;html=1;size=0.11764705882352941;strokeColor=#EA6B66;" vertex="1" parent="1">
          <mxGeometry x="250" y="273" width="170" height="40" as="geometry" />
        </mxCell>
        <mxCell id="DnD35GqqPeqiVCsaAdNy-111" value="" style="endArrow=classic;html=1;dashed=1;dashPattern=1 4;strokeColor=#666666;" edge="1" parent="1" source="DnD35GqqPeqiVCsaAdNy-110" target="DnD35GqqPeqiVCsaAdNy-104">
          <mxGeometry width="50" height="50" relative="1" as="geometry">
            <mxPoint x="400" y="481.53999999999996" as="sourcePoint" />
            <mxPoint x="450" y="431.53999999999996" as="targetPoint" />
          </mxGeometry>
        </mxCell>
        <mxCell id="DnD35GqqPeqiVCsaAdNy-112" value="forword" style="edgeLabel;html=1;align=center;verticalAlign=middle;resizable=0;points=[];" vertex="1" connectable="0" parent="DnD35GqqPeqiVCsaAdNy-111">
          <mxGeometry x="0.0222" y="-3" relative="1" as="geometry">
            <mxPoint y="-3" as="offset" />
          </mxGeometry>
        </mxCell>
        <mxCell id="DnD35GqqPeqiVCsaAdNy-113" value="" style="whiteSpace=wrap;html=1;fontColor=#330000;strokeColor=#666666;fillColor=none;dashed=1;" vertex="1" parent="1">
          <mxGeometry x="30" y="409" width="370" height="490" as="geometry" />
        </mxCell>
        <mxCell id="DnD35GqqPeqiVCsaAdNy-114" value="" style="endArrow=classic;html=1;strokeColor=#EA6B66;fontColor=#330000;exitX=0.5;exitY=0;exitDx=0;exitDy=0;entryX=0;entryY=0;entryDx=85;entryDy=40;entryPerimeter=0;" edge="1" parent="1" source="DnD35GqqPeqiVCsaAdNy-113" target="DnD35GqqPeqiVCsaAdNy-110">
          <mxGeometry width="50" height="50" relative="1" as="geometry">
            <mxPoint x="560" y="450" as="sourcePoint" />
            <mxPoint x="610" y="400" as="targetPoint" />
          </mxGeometry>
        </mxCell>
        <mxCell id="DnD35GqqPeqiVCsaAdNy-115" value="UIScrollView" style="swimlane;fontStyle=0;childLayout=stackLayout;horizontal=1;startSize=26;fillColor=none;horizontalStack=0;resizeParent=1;resizeParentMax=0;resizeLast=0;collapsible=1;marginBottom=0;strokeColor=#330000;" vertex="1" parent="1">
          <mxGeometry x="45" y="419" width="220" height="156" as="geometry" />
        </mxCell>
        <mxCell id="DnD35GqqPeqiVCsaAdNy-116" value="scrollViewDidScroll:" style="text;strokeColor=none;fillColor=none;align=left;verticalAlign=top;spacingLeft=4;spacingRight=4;overflow=hidden;rotatable=0;points=[[0,0.5],[1,0.5]];portConstraint=eastwest;" vertex="1" parent="DnD35GqqPeqiVCsaAdNy-115">
          <mxGeometry y="26" width="220" height="26" as="geometry" />
        </mxCell>
        <mxCell id="DnD35GqqPeqiVCsaAdNy-117" value="scrollViewDidEndDecelerating:" style="text;strokeColor=none;fillColor=none;align=left;verticalAlign=top;spacingLeft=4;spacingRight=4;overflow=hidden;rotatable=0;points=[[0,0.5],[1,0.5]];portConstraint=eastwest;" vertex="1" parent="DnD35GqqPeqiVCsaAdNy-115">
          <mxGeometry y="52" width="220" height="26" as="geometry" />
        </mxCell>
        <mxCell id="DnD35GqqPeqiVCsaAdNy-118" value="scrollViewDidEndScrollingAnimation:" style="text;strokeColor=none;fillColor=none;align=left;verticalAlign=top;spacingLeft=4;spacingRight=4;overflow=hidden;rotatable=0;points=[[0,0.5],[1,0.5]];portConstraint=eastwest;" vertex="1" parent="DnD35GqqPeqiVCsaAdNy-115">
          <mxGeometry y="78" width="220" height="26" as="geometry" />
        </mxCell>
        <mxCell id="DnD35GqqPeqiVCsaAdNy-119" value="scrollViewDidEndDragging:" style="text;strokeColor=none;fillColor=none;align=left;verticalAlign=top;spacingLeft=4;spacingRight=4;overflow=hidden;rotatable=0;points=[[0,0.5],[1,0.5]];portConstraint=eastwest;" vertex="1" parent="DnD35GqqPeqiVCsaAdNy-115">
          <mxGeometry y="104" width="220" height="26" as="geometry" />
        </mxCell>
        <mxCell id="DnD35GqqPeqiVCsaAdNy-120" value="scrollViewDidScrollToTop:" style="text;strokeColor=none;fillColor=none;align=left;verticalAlign=top;spacingLeft=4;spacingRight=4;overflow=hidden;rotatable=0;points=[[0,0.5],[1,0.5]];portConstraint=eastwest;" vertex="1" parent="DnD35GqqPeqiVCsaAdNy-115">
          <mxGeometry y="130" width="220" height="26" as="geometry" />
        </mxCell>
        <mxCell id="DnD35GqqPeqiVCsaAdNy-121" value="UITableView" style="swimlane;fontStyle=0;childLayout=stackLayout;horizontal=1;startSize=26;fillColor=none;horizontalStack=0;resizeParent=1;resizeParentMax=0;resizeLast=0;collapsible=1;marginBottom=0;strokeColor=#330000;" vertex="1" parent="1">
          <mxGeometry x="45" y="609" width="340" height="130" as="geometry" />
        </mxCell>
        <mxCell id="DnD35GqqPeqiVCsaAdNy-122" value="tableView: willDisplayCell: forRowAtIndexPath:" style="text;strokeColor=none;fillColor=none;align=left;verticalAlign=top;spacingLeft=4;spacingRight=4;overflow=hidden;rotatable=0;points=[[0,0.5],[1,0.5]];portConstraint=eastwest;" vertex="1" parent="DnD35GqqPeqiVCsaAdNy-121">
          <mxGeometry y="26" width="340" height="26" as="geometry" />
        </mxCell>
        <mxCell id="DnD35GqqPeqiVCsaAdNy-123" value="tableView: didEndDisplayingCell: forRowAtIndexPath:" style="text;strokeColor=none;fillColor=none;align=left;verticalAlign=top;spacingLeft=4;spacingRight=4;overflow=hidden;rotatable=0;points=[[0,0.5],[1,0.5]];portConstraint=eastwest;" vertex="1" parent="DnD35GqqPeqiVCsaAdNy-121">
          <mxGeometry y="52" width="340" height="26" as="geometry" />
        </mxCell>
        <mxCell id="DnD35GqqPeqiVCsaAdNy-124" value="tableView: didSelectRowAtIndexPath:" style="text;strokeColor=none;fillColor=none;align=left;verticalAlign=top;spacingLeft=4;spacingRight=4;overflow=hidden;rotatable=0;points=[[0,0.5],[1,0.5]];portConstraint=eastwest;" vertex="1" parent="DnD35GqqPeqiVCsaAdNy-121">
          <mxGeometry y="78" width="340" height="26" as="geometry" />
        </mxCell>
        <mxCell id="DnD35GqqPeqiVCsaAdNy-125" value="tableView: accessoryButtonTappedForRowWithIndexPath:" style="text;strokeColor=none;fillColor=none;align=left;verticalAlign=top;spacingLeft=4;spacingRight=4;overflow=hidden;rotatable=0;points=[[0,0.5],[1,0.5]];portConstraint=eastwest;" vertex="1" parent="DnD35GqqPeqiVCsaAdNy-121">
          <mxGeometry y="104" width="340" height="26" as="geometry" />
        </mxCell>
        <mxCell id="DnD35GqqPeqiVCsaAdNy-126" value="UICollectionView" style="swimlane;fontStyle=0;childLayout=stackLayout;horizontal=1;startSize=26;fillColor=none;horizontalStack=0;resizeParent=1;resizeParentMax=0;resizeLast=0;collapsible=1;marginBottom=0;strokeColor=#330000;" vertex="1" parent="1">
          <mxGeometry x="45" y="779" width="340" height="104" as="geometry" />
        </mxCell>
        <mxCell id="DnD35GqqPeqiVCsaAdNy-127" value="collectionView: willDisplayCell: forItemAtIndexPath:" style="text;strokeColor=none;fillColor=none;align=left;verticalAlign=top;spacingLeft=4;spacingRight=4;overflow=hidden;rotatable=0;points=[[0,0.5],[1,0.5]];portConstraint=eastwest;" vertex="1" parent="DnD35GqqPeqiVCsaAdNy-126">
          <mxGeometry y="26" width="340" height="26" as="geometry" />
        </mxCell>
        <mxCell id="DnD35GqqPeqiVCsaAdNy-128" value="collectionView: didEndDisplayingCell: forItemAtIndexPath:" style="text;strokeColor=none;fillColor=none;align=left;verticalAlign=top;spacingLeft=4;spacingRight=4;overflow=hidden;rotatable=0;points=[[0,0.5],[1,0.5]];portConstraint=eastwest;" vertex="1" parent="DnD35GqqPeqiVCsaAdNy-126">
          <mxGeometry y="52" width="340" height="26" as="geometry" />
        </mxCell>
        <mxCell id="DnD35GqqPeqiVCsaAdNy-129" value="collectionView: didSelectRowAtIndexPath:" style="text;strokeColor=none;fillColor=none;align=left;verticalAlign=top;spacingLeft=4;spacingRight=4;overflow=hidden;rotatable=0;points=[[0,0.5],[1,0.5]];portConstraint=eastwest;" vertex="1" parent="DnD35GqqPeqiVCsaAdNy-126">
          <mxGeometry y="78" width="340" height="26" as="geometry" />
        </mxCell>
        <mxCell id="DnD35GqqPeqiVCsaAdNy-130" value="" style="endArrow=classic;html=1;strokeColor=#EA6B66;fontColor=#330000;exitX=0.5;exitY=0;exitDx=0;exitDy=0;entryX=0;entryY=0;entryDx=85;entryDy=40;entryPerimeter=0;" edge="1" parent="1" source="DnD35GqqPeqiVCsaAdNy-131" target="DnD35GqqPeqiVCsaAdNy-110">
          <mxGeometry width="50" height="50" relative="1" as="geometry">
            <mxPoint x="670" y="430" as="sourcePoint" />
            <mxPoint x="345" y="323" as="targetPoint" />
          </mxGeometry>
        </mxCell>
        <mxCell id="DnD35GqqPeqiVCsaAdNy-131" value="" style="whiteSpace=wrap;html=1;fontColor=#330000;strokeColor=#666666;fillColor=none;dashed=1;" vertex="1" parent="1">
          <mxGeometry x="510" y="409" width="260" height="261" as="geometry" />
        </mxCell>
        <mxCell id="DnD35GqqPeqiVCsaAdNy-132" value="UITabBar" style="swimlane;fontStyle=0;childLayout=stackLayout;horizontal=1;startSize=26;fillColor=none;horizontalStack=0;resizeParent=1;resizeParentMax=0;resizeLast=0;collapsible=1;marginBottom=0;strokeColor=#330000;" vertex="1" parent="1">
          <mxGeometry x="530" y="419" width="220" height="52" as="geometry" />
        </mxCell>
        <mxCell id="DnD35GqqPeqiVCsaAdNy-133" value="tabBar: didSelectItem:" style="text;strokeColor=none;fillColor=none;align=left;verticalAlign=top;spacingLeft=4;spacingRight=4;overflow=hidden;rotatable=0;points=[[0,0.5],[1,0.5]];portConstraint=eastwest;" vertex="1" parent="DnD35GqqPeqiVCsaAdNy-132">
          <mxGeometry y="26" width="220" height="26" as="geometry" />
        </mxCell>
        <mxCell id="DnD35GqqPeqiVCsaAdNy-134" value="UIActionSheet" style="swimlane;fontStyle=0;childLayout=stackLayout;horizontal=1;startSize=26;fillColor=none;horizontalStack=0;resizeParent=1;resizeParentMax=0;resizeLast=0;collapsible=1;marginBottom=0;strokeColor=#330000;" vertex="1" parent="1">
          <mxGeometry x="530" y="510" width="220" height="52" as="geometry" />
        </mxCell>
        <mxCell id="DnD35GqqPeqiVCsaAdNy-135" value="actionSheet: clickedButtonAtIndex:" style="text;strokeColor=none;fillColor=none;align=left;verticalAlign=top;spacingLeft=4;spacingRight=4;overflow=hidden;rotatable=0;points=[[0,0.5],[1,0.5]];portConstraint=eastwest;" vertex="1" parent="DnD35GqqPeqiVCsaAdNy-134">
          <mxGeometry y="26" width="220" height="26" as="geometry" />
        </mxCell>
        <mxCell id="DnD35GqqPeqiVCsaAdNy-136" value="UIAlertView" style="swimlane;fontStyle=0;childLayout=stackLayout;horizontal=1;startSize=26;fillColor=none;horizontalStack=0;resizeParent=1;resizeParentMax=0;resizeLast=0;collapsible=1;marginBottom=0;strokeColor=#330000;" vertex="1" parent="1">
          <mxGeometry x="530" y="600" width="220" height="52" as="geometry" />
        </mxCell>
        <mxCell id="DnD35GqqPeqiVCsaAdNy-137" value="alertView: clickedButtonAtIndex:" style="text;strokeColor=none;fillColor=none;align=left;verticalAlign=top;spacingLeft=4;spacingRight=4;overflow=hidden;rotatable=0;points=[[0,0.5],[1,0.5]];portConstraint=eastwest;" vertex="1" parent="DnD35GqqPeqiVCsaAdNy-136">
          <mxGeometry y="26" width="220" height="26" as="geometry" />
        </mxCell>
        <mxCell id="DnD35GqqPeqiVCsaAdNy-139" value="&lt;b&gt;DelegateProxy方案:&lt;/b&gt;" style="text;html=1;strokeColor=none;fillColor=none;align=left;verticalAlign=middle;whiteSpace=wrap;rounded=0;dashed=1;fontColor=#000000;" vertex="1" parent="1">
          <mxGeometry x="-10" y="30" width="190" height="20" as="geometry" />
        </mxCell>
        <mxCell id="DnD35GqqPeqiVCsaAdNy-140" value="为了兼容云音乐的代码，&lt;span style=&quot;font-family: &amp;#34;helvetica&amp;#34; ; text-align: left&quot;&gt;DelegateProxyChain其中一个方法名固定位：&lt;/span&gt;&lt;span style=&quot;font-family: &amp;#34;menlo&amp;#34;&quot;&gt;containsObject&lt;/span&gt;&lt;span class=&quot;s1&quot; style=&quot;font-family: &amp;#34;menlo&amp;#34;&quot;&gt;:&lt;/span&gt;" style="shape=callout;whiteSpace=wrap;html=1;perimeter=calloutPerimeter;dashed=1;strokeColor=#666666;fillColor=none;fontColor=#000000;base=20;" vertex="1" parent="1">
          <mxGeometry x="570" y="50" width="225" height="80" as="geometry" />
        </mxCell>
        <mxCell id="DnD35GqqPeqiVCsaAdNy-141" value="" style="endArrow=classic;html=1;strokeColor=#EA6B66;fontColor=#000000;exitX=0;exitY=0;exitDx=112.5;exitDy=80;exitPerimeter=0;entryX=0.75;entryY=0;entryDx=0;entryDy=0;" edge="1" parent="1" source="DnD35GqqPeqiVCsaAdNy-140" target="DnD35GqqPeqiVCsaAdNy-100">
          <mxGeometry width="50" height="50" relative="1" as="geometry">
            <mxPoint x="940" y="210" as="sourcePoint" />
            <mxPoint x="990" y="160" as="targetPoint" />
          </mxGeometry>
        </mxCell>
      </root>
    </mxGraphModel>
  </diagram>
</mxfile>
